<svg width="1408" height="85" viewBox="0 0 1408 85" fill="none" xmlns="http://www.w3.org/2000/svg">
<path d="M0 6C0 2.68629 2.68629 0 6 0H1402C1405.31 0 1408 2.68629 1408 6V79C1408 82.3137 1405.31 85 1402 85H6.00002C2.68631 85 0 82.3137 0 79V6Z" fill="#B3B3B3"/>
<path d="M176 23C176 21.3431 177.343 20 179 20H1357C1358.66 20 1360 21.3431 1360 23V65C1360 66.6569 1358.66 68 1357 68H179C177.343 68 176 66.6569 176 65V23Z" fill="#DDDDDD"/>
<path d="M48 43C48 51.8366 40.8366 59 32 59C23.1634 59 16 51.8366 16 43C16 34.1634 23.1634 27 32 27C40.8366 27 48 34.1634 48 43Z" fill="#FFC7C2"/>
<path d="M152 43C152 51.8366 144.837 59 136 59C127.163 59 120 51.8366 120 43C120 34.1634 127.163 27 136 27C144.837 27 152 34.1634 152 43Z" fill="#AFF4C6"/>
<path d="M100 43C100 51.8366 92.8366 59 84 59C75.1634 59 68 51.8366 68 43C68 34.1634 75.1634 27 84 27C92.8366 27 100 34.1634 100 43Z" fill="#FFE8A3"/>
</svg>
