<svg width="136" height="32" viewBox="0 0 136 32" fill="none" xmlns="http://www.w3.org/2000/svg">
<path d="M32 16C32 24.8366 24.8366 32 16 32C7.16344 32 0 24.8366 0 16C0 7.16344 7.16344 0 16 0C24.8366 0 32 7.16344 32 16Z" fill="#FFC7C2"/>
<path d="M136 16C136 24.8366 128.837 32 120 32C111.163 32 104 24.8366 104 16C104 7.16344 111.163 0 120 0C128.837 0 136 7.16344 136 16Z" fill="#AFF4C6"/>
<path d="M84 16C84 24.8366 76.8366 32 68 32C59.1634 32 52 24.8366 52 16C52 7.16344 59.1634 0 68 0C76.8366 0 84 7.16344 84 16Z" fill="#FFE8A3"/>
</svg>
