<svg xmlns="http://www.w3.org/2000/svg" width="983.04" height="939.52" viewBox="0 0 737.28 704.64"><path fill="#3423a6" fill-rule="evenodd" d="M768.363 910.397c.688 8.33-4.127 12.495-14.446 12.495-6.535 0-25.365-3.394-56.492-10.181-31.127-6.787-50.301-11.415-57.524-13.883-71.884 25.298-140.844 37.947-206.88 37.947-106.278 0-193.467-31.777-261.567-95.33-67.413-62.63-101.12-141.762-101.12-237.402 0-97.798 32.675-178.937 98.024-243.417 67.413-66.639 154.945-99.958 262.599-99.958 52.279 0 101.462 8.947 147.55 26.84 49.872 19.745 89.08 47.512 117.628 83.299 5.847 7.405 8.77 12.649 8.77 15.734 0 9.873-15.391 32.009-46.173 66.408-30.783 34.399-50.646 51.599-59.588 51.599-2.064 0-9.974-6.325-23.732-18.974-16.853-15.117-34.05-26.84-51.591-35.17-26.14-12.65-55.031-18.974-86.673-18.974-51.591 0-92.52 17.277-122.787 51.83-28.203 31.777-42.305 71.42-42.305 118.932 0 50.288 14.618 90.086 43.853 119.395 30.267 30.234 73.087 45.352 128.462 45.352 35.082 0 75.333.475 118.669-15.26-1.032-10.18-5.17-44.438-10.328-86.087-4.471-32.085-6.707-58.001-6.707-77.745 0-5.862 2.236-9.41 6.707-10.644 1.72-.617 4.47-.926 8.255-.926 9.974 0 25.02.849 45.142 2.546 20.12 1.696 35.34 2.545 45.658 2.545 11.006 0 27.515-.694 49.527-2.083 22.013-1.388 38.522-2.082 49.528-2.082 8.598 0 12.898 5.09 12.898 15.27 0 14.81-.946 37.177-2.838 67.103-1.892 29.926-2.837 52.293-2.837 67.102 0 39.798 3.267 99.34 9.802 178.629l.516 5.09"/><path fill="#2cda9d" fill-rule="evenodd" d="M700.74 826.26c2.445 14.566-53.616 75.036-60.84 72.568-71.883 25.298-140.843 37.947-206.88 37.947-106.277 0-103.8-112.901-171.9-176.455-67.412-62.628-190.785-60.637-190.785-156.277 0-97.798 32.674-178.937 98.023-243.417 67.413-66.639 154.945-99.958 262.599-99.958 52.279 0 101.462 8.947 147.55 26.84 49.872 19.745-131.854-12.256-237.227 20.652-24.53 7.065-83.601 50.988-114.383 85.388-19.848-3.02 431.085-19.162 372.247 111-2.064 0-9.974-6.325-23.732-18.974-16.853-15.117-34.05-26.84-51.591-35.17-26.14-12.65-55.031-18.974-86.673-18.974-51.591 0-92.52 17.277-122.787 51.83-28.203 31.777-42.305 71.42-42.305 118.932 0 50.288 14.618 90.086 43.853 119.395 30.267 30.234 73.087 45.352 128.462 45.352 35.082 0 75.333.475 118.669-15.26-1.032-10.18 136.8 57.192 136.8 72"/></svg>