<svg xmlns="http://www.w3.org/2000/svg" width="660.483" height="636.163" viewBox="0 0 495.362 477.122"><path fill="none" stroke="#ffea00" stroke-linecap="square" stroke-linejoin="bevel" stroke-width="7.2" d="M560.162 216c0 16.796-16.477 37.938-31.68 45.601-23.225 8.816-44.642 9.39-64.32-.96-8.299 3.473-2.586 4.123-12.358 4.123-16.957 0-31.814-5.329-44.572-15.988-13.242-11.142-19.863-25.111-19.863-41.906 0-5.168-.183-4.173 2.152-10.67 3.87-7.07 32.332-8.682 17.095-9.353-35.31 4.65-52.675 23.255-85.975 60.834-30.23 34.09-46.002 62.652-42.323 97.162 4.242 32.936 11.614 65.36 30.923 82.838 22.85 24.7 39.14 17.98 52.2 22.32 40.55-93.086 26.677-88.215 40.016-132.323l134.945 9.923c-13.243 38.273-35.113 99.457-61.92 175.681-12.759 36.012-57.555 45.36-105.84 45.36-5.653 0-40.863 1.316-48.13.993l22.285-60.559c-56.199 0-101.982-8.155-137.348-24.466-48.124-22.286-72.187-58.137-72.187-107.553 0-27.454 8.479-55.392 25.435-83.815 23.74-39.888 57.976-71.055 102.71-93.503 42.148-20.994 87.608-31.49 136.378-31.49h54.02c16.794 0 68.6 3.329 81.356 14.472"/><path fill="none" stroke="#ffea00" stroke-linecap="square" stroke-linejoin="bevel" stroke-width="7.2" d="M560.25 210.007c0 16.795-6.701 30.764-20.105 41.907-12.596 10.658-27.453 15.987-44.571 15.987-16.957 0-31.814-5.329-44.572-15.987-13.242-11.143-19.863-25.112-19.863-41.907 0-5.168.807-10.82 2.422-16.957-57.735-34.1-173.874 86.174-155.28 159.271 6.72 33.826 10.93 62.202 35.64 79.32 10.157 12.697 51.248 21.814 85.969 21.814l45.056-125.963H535.3c-13.243 38.273-33.268 95.522-60.075 171.746-12.758 36.012-43.28 54.02-91.566 54.02-5.652 0-12.112-.163-19.38-.486l22.287-60.559c-56.2 0-101.982-8.155-137.349-24.466-48.124-22.286-72.186-58.137-72.186-107.553 0-27.454 8.478-55.392 25.435-83.814 23.739-39.889 57.975-71.057 102.708-93.504 42.15-20.994 87.609-31.49 136.38-31.49h54.019c16.795 0 31.57 5.571 44.329 16.713 13.565 11.466 20.348 25.435 20.348 41.908"/></svg>