<svg xmlns="http://www.w3.org/2000/svg" width="1122.56" height="240.96" viewBox="0 0 841.92 180.72"><path fill="#fff" fill-rule="evenodd" stroke="#fff" stroke-linecap="square" stroke-linejoin="bevel" d="M178.545 438.439c-5.668 6.297-13.959 11.37-24.875 15.218-10.915 3.849-22.88 5.773-35.894 5.773-20.012 0-36-6.122-47.965-18.367-11.965-12.245-18.368-29.283-19.207-51.114l-.105-13.224c0-15.044 2.659-28.181 7.976-39.412 5.318-11.23 12.928-19.871 22.828-25.924 9.901-6.052 21.36-9.078 34.374-9.078 19.032 0 33.813 4.355 44.343 13.067 10.531 8.71 16.671 21.708 18.42 38.99h-35.475c-1.26-8.536-3.988-14.623-8.186-18.262-4.199-3.638-10.146-5.457-17.843-5.457-9.236 0-16.373 3.918-21.41 11.755-5.039 7.837-7.593 19.032-7.663 33.586v9.236c0 15.254 2.607 26.711 7.82 34.373 5.212 7.662 13.416 11.493 24.612 11.493 9.586 0 16.723-2.134 21.41-6.402v-23.72h-25.609v-25.295h62.45v62.764m74.495 20.991c-17.423 0-31.522-5.195-42.298-15.586-10.775-10.39-16.163-23.912-16.163-40.566v-2.938c0-11.615 2.152-21.866 6.455-30.753 4.303-8.886 10.583-15.76 18.84-20.623 8.256-4.863 18.052-7.295 29.387-7.295 15.954 0 28.548 4.95 37.785 14.85 9.236 9.902 13.854 23.704 13.854 41.407v13.749h-70.32c1.26 6.367 4.022 11.37 8.291 15.009 4.268 3.638 9.796 5.457 16.583 5.457 11.195 0 19.941-3.918 26.24-11.755l16.162 19.102c-4.408 6.088-10.653 10.933-18.735 14.537-8.08 3.603-16.775 5.405-26.08 5.405m-3.99-90.472c-10.355 0-16.513 6.857-18.472 20.571h35.685V386.8c.14-5.667-1.294-10.058-4.303-13.172-3.009-3.113-7.312-4.67-12.91-4.67m97.96-25.19 1.154 13.33c7.837-10.286 18.647-15.43 32.432-15.43 11.825 0 20.66 3.535 26.501 10.602 5.843 7.067 8.87 17.702 9.08 31.906v73.155h-35.476v-71.685c0-5.738-1.155-9.954-3.464-12.647-2.309-2.694-6.507-4.041-12.595-4.041-6.927 0-12.07 2.729-15.428 8.186v80.187h-35.37V343.768h33.166M491.875 459.43c-17.423 0-31.522-5.195-42.298-15.586-10.775-10.39-16.163-23.912-16.163-40.566v-2.938c0-11.615 2.152-21.866 6.455-30.753 4.303-8.886 10.583-15.76 18.84-20.623 8.256-4.863 18.052-7.295 29.387-7.295 15.954 0 28.548 4.95 37.785 14.85 9.236 9.902 13.854 23.704 13.854 41.407v13.749h-70.32c1.26 6.367 4.022 11.37 8.291 15.009 4.268 3.638 9.796 5.457 16.583 5.457 11.195 0 19.941-3.918 26.24-11.755l16.162 19.102c-4.408 6.088-10.653 10.933-18.735 14.537-8.08 3.603-16.775 5.405-26.08 5.405m-3.99-90.472c-10.355 0-16.513 6.857-18.472 20.571H505.1V386.8c.14-5.667-1.294-10.058-4.303-13.172-3.009-3.113-7.312-4.67-12.91-4.67m124.933 56.466c0-3.009-1.574-5.423-4.723-7.242-3.148-1.819-9.13-3.708-17.947-5.667-8.817-1.96-16.094-4.531-21.83-7.715-5.739-3.183-10.112-7.05-13.12-11.597-3.009-4.548-4.514-9.761-4.514-15.639 0-10.426 4.303-19.014 12.91-25.767 8.606-6.752 19.872-10.128 33.796-10.128 14.974 0 27.01 3.394 36.105 10.18 9.096 6.788 13.644 15.71 13.644 26.765h-35.475c0-9.096-4.793-13.645-14.379-13.645-3.709 0-6.822 1.032-9.34 3.097-2.52 2.064-3.78 4.635-3.78 7.714 0 3.149 1.54 5.703 4.618 7.662 3.08 1.959 7.995 3.568 14.747 4.828 6.752 1.26 12.682 2.764 17.79 4.513 17.073 5.877 25.61 16.408 25.61 31.592 0 10.355-4.6 18.787-13.803 25.294-9.2 6.507-21.113 9.761-35.737 9.761-9.726 0-18.403-1.75-26.029-5.248-7.627-3.498-13.575-8.256-17.843-14.274-4.268-6.017-6.402-12.35-6.402-18.997h33.061c.14 5.248 1.89 9.079 5.248 11.493 3.358 2.414 7.662 3.62 12.91 3.62 4.827 0 8.448-.979 10.862-2.938 2.414-1.96 3.621-4.513 3.621-7.662m88.315 31.907H665.66V343.768h35.475V457.33M663.56 314.485c0-5.037 1.82-9.166 5.458-12.384 3.638-3.22 8.361-4.828 14.17-4.828 5.806 0 10.53 1.609 14.168 4.828 3.638 3.218 5.458 7.347 5.458 12.384 0 5.038-1.82 9.167-5.458 12.385-3.639 3.219-8.362 4.828-14.169 4.828-5.808 0-10.53-1.61-14.169-4.828-3.639-3.218-5.458-7.347-5.458-12.385m119.428 110.94c0-3.01-1.574-5.424-4.723-7.243-3.148-1.819-9.13-3.708-17.947-5.667-8.816-1.96-16.093-4.531-21.83-7.715-5.739-3.183-10.112-7.05-13.12-11.597-3.009-4.548-4.514-9.761-4.514-15.639 0-10.426 4.304-19.014 12.91-25.767 8.606-6.752 19.872-10.128 33.796-10.128 14.974 0 27.01 3.394 36.105 10.18 9.096 6.788 13.644 15.71 13.644 26.765h-35.475c0-9.096-4.793-13.645-14.379-13.645-3.708 0-6.822 1.032-9.34 3.097-2.52 2.064-3.78 4.635-3.78 7.714 0 3.149 1.54 5.703 4.62 7.662 3.077 1.959 7.993 3.568 14.745 4.828 6.752 1.26 12.682 2.764 17.79 4.513 17.073 5.877 25.61 16.408 25.61 31.592 0 10.355-4.6 18.787-13.802 25.294-9.202 6.507-21.114 9.761-35.738 9.761-9.726 0-18.402-1.75-26.029-5.248-7.627-3.498-13.575-8.256-17.843-14.274-4.268-6.017-6.402-12.35-6.402-18.997h33.061c.14 5.248 1.89 9.079 5.248 11.493 3.36 2.414 7.662 3.62 12.91 3.62 4.828 0 8.45-.979 10.863-2.938 2.414-1.96 3.62-4.513 3.62-7.662"/></svg>